<?xml version="1.0" standalone="no"?>
<!DOCTYPE svg PUBLIC "-//W3C//DTD SVG 20010904//EN"
 "http://www.w3.org/TR/2001/REC-SVG-20010904/DTD/svg10.dtd">
<svg version="1.0" xmlns="http://www.w3.org/2000/svg"
 width="512.000000pt" height="512.000000pt" viewBox="0 0 512.000000 512.000000"
 preserveAspectRatio="xMidYMid meet">

<g transform="translate(0.000000,512.000000) scale(0.100000,-0.100000)"
fill="#000000" stroke="none">
<path d="M2470 4119 c-25 -5 -77 -25 -117 -44 -145 -71 -243 -225 -243 -380 0
-54 4 -66 26 -89 21 -20 37 -26 69 -26 59 0 91 33 100 103 16 116 77 199 173
231 209 72 399 -138 311 -343 -37 -87 -113 -137 -240 -156 -20 -3 -46 -17 -60
-31 -22 -23 -25 -37 -29 -136 l-5 -111 -30 -10 c-47 -15 -132 -75 -163 -115
-56 -71 -91 -166 -92 -247 0 -47 -28 -112 -59 -140 -13 -11 -482 -324 -1044
-695 -967 -639 -1023 -677 -1044 -720 -13 -24 -23 -56 -23 -70 0 -42 42 -113
80 -135 34 -20 52 -20 1060 -23 564 -2 1044 0 1067 3 88 13 125 105 66 167
l-27 28 -510 0 c-441 0 -508 2 -496 14 8 8 309 208 668 445 l652 431 653 -431
c358 -237 659 -437 667 -445 12 -12 -51 -14 -471 -14 l-486 0 -26 -25 c-44
-45 -39 -118 10 -151 27 -18 69 -19 1063 -19 1021 0 1035 0 1070 20 38 22 80
93 80 135 0 14 -10 46 -22 70 -22 43 -78 81 -1045 720 -562 371 -1031 684
-1044 695 -31 28 -59 93 -59 140 -1 159 -109 309 -263 365 -26 9 -28 13 -25
56 3 45 4 47 43 59 94 27 210 127 258 222 67 132 65 292 -7 430 -32 64 -116
142 -189 178 -105 51 -192 64 -297 44z m163 -1183 c48 -20 89 -66 83 -92 -3
-11 -10 -53 -16 -92 -5 -39 -17 -89 -26 -112 l-16 -40 -30 25 c-88 74 -204
-19 -150 -119 12 -21 21 -40 20 -41 -8 -7 -1687 -1114 -1807 -1192 l-143 -93
-121 0 c-103 0 -119 2 -107 14 8 7 438 293 955 634 517 342 957 638 978 658
73 71 102 137 117 267 9 76 29 121 70 155 48 41 133 54 193 28z m1120 -1245
c411 -271 747 -497 747 -502 0 -5 -52 -9 -115 -9 l-114 0 -623 412 c-343 226
-661 436 -706 466 l-84 54 59 39 c32 22 65 38 74 37 8 -2 351 -225 762 -497z"/>
<path d="M2495 1156 c-32 -32 -40 -69 -25 -107 17 -39 46 -59 90 -59 44 0 73
20 90 59 26 64 -20 131 -90 131 -30 0 -47 -6 -65 -24z"/>
</g>
</svg>
